<svg width="821" height="793" viewBox="0 0 821 793" fill="none" xmlns="http://www.w3.org/2000/svg">
<path fill-rule="evenodd" clip-rule="evenodd" d="M501.094 0.0295554C668.889 2.31695 782.247 154.558 832.748 317.264C881.658 474.841 869.232 660.976 735.286 754.553C608.715 842.978 450.298 763.54 326.804 670.727C207.54 581.094 103.004 453.62 140.889 307.832C185.184 137.38 327.707 -2.33406 501.094 0.0295554Z" fill="#FF8400"/>
<g clip-path="url(#clip0_13_124)">
<path d="M407.102 447.132H59.4704V661.714H407.102V447.132Z" fill="#E6E6E6"/>
<path d="M397.162 465.533H69.4111V644.565H397.162V465.533Z" fill="white"/>
<path d="M342.351 498.857H333.864V509.897H342.351V498.857Z" fill="#E6E6E6"/>
<path d="M115.973 498.857H107.486V509.897H115.973V498.857Z" fill="#FF8400"/>
<path d="M135.532 530.48H107.241V567.282H135.532V530.48Z" fill="#E6E6E6"/>
<path d="M406.954 434.735H59.3222V453.946H406.954V434.735Z" fill="#FF8400"/>
<path d="M70.297 452.163C71.8087 452.163 73.0343 450.569 73.0343 448.602C73.0343 446.636 71.8087 445.041 70.297 445.041C68.7852 445.041 67.5597 446.636 67.5597 448.602C67.5597 450.569 68.7852 452.163 70.297 452.163Z" fill="white"/>
<path d="M80.6868 452.163C82.1985 452.163 83.424 450.569 83.424 448.602C83.424 446.636 82.1985 445.041 80.6868 445.041C79.175 445.041 77.9495 446.636 77.9495 448.602C77.9495 450.569 79.175 452.163 80.6868 452.163Z" fill="white"/>
<path d="M91.077 452.163C92.5888 452.163 93.8143 450.569 93.8143 448.602C93.8143 446.636 92.5888 445.041 91.077 445.041C89.5653 445.041 88.3398 446.636 88.3398 448.602C88.3398 450.569 89.5653 452.163 91.077 452.163Z" fill="white"/>
<path d="M460 661.715H0V663H460V661.715Z" fill="#E6E6E6"/>
<path d="M234.184 534.161H164.873V539.337H234.184V534.161Z" fill="#E6E6E6"/>
<path d="M271.905 553.041H164.873V558.217H271.905V553.041Z" fill="#FF8400"/>
<path d="M252.102 570.827H164.873V576.003H252.102V570.827Z" fill="#E6E6E6"/>
<path d="M215.796 588.548H164.873V593.724H215.796V588.548Z" fill="#E6E6E6"/>
<path d="M241.729 606.267H164.873V611.443H241.729V606.267Z" fill="#E6E6E6"/>
<path d="M356.968 498.857H348.481V509.897H356.968V498.857Z" fill="#E6E6E6"/>
<path d="M371.585 498.857H363.098V509.897H371.585V498.857Z" fill="#E6E6E6"/>
<path opacity="0.997" d="M354.349 593.723C363.868 593.723 371.585 583.685 371.585 571.302C371.585 558.919 363.868 548.881 354.349 548.881C344.83 548.881 337.113 558.919 337.113 571.302C337.113 583.685 344.83 593.723 354.349 593.723Z" fill="#FF8400"/>
<path d="M93.131 316.71C103.848 316.71 112.535 305.409 112.535 291.469C112.535 277.528 103.848 266.227 93.131 266.227C82.4142 266.227 73.7265 277.528 73.7265 291.469C73.7265 305.409 82.4142 316.71 93.131 316.71Z" fill="#2F2E41"/>
<path d="M44.8404 507.442H36.342L32.2998 464.813H44.8394L44.8404 507.442Z" fill="#FEB8B8"/>
<path d="M30.2755 504.284H46.6611V517.705H19.9584C19.9584 514.145 21.0453 510.732 22.9802 508.215C24.915 505.698 27.5392 504.284 30.2755 504.284Z" fill="#2F2E41"/>
<path d="M31.5774 501.274L23.4714 497.965L29.4262 455.715L41.3901 460.599L31.5774 501.274Z" fill="#FEB8B8"/>
<path d="M18.403 492.589L34.0373 498.972L30.9481 511.777L5.47045 501.376C5.87613 499.695 6.53245 498.133 7.40195 496.782C8.27144 495.43 9.33709 494.315 10.538 493.499C11.739 492.683 13.0517 492.182 14.4012 492.027C15.7508 491.871 17.1107 492.062 18.4035 492.59L18.403 492.589Z" fill="#2F2E41"/>
<path d="M34.3419 484.263C33.9706 484.263 33.6024 484.176 33.2549 484.006L27.0021 480.957C26.3004 480.612 25.7175 479.95 25.3595 479.092C25.0015 478.234 24.8924 477.238 25.052 476.284C26.6257 467.079 31.989 435.742 34.9259 418.934C38.4088 398.997 89.2193 395.293 91.3804 395.145L91.5583 395.133L97.274 404.472C99.3393 413.108 98.6846 419.844 95.3283 424.493C85.5339 438.058 56.292 429.641 52.8052 428.576L37.2635 481.651C37.037 482.419 36.6366 483.08 36.1153 483.547C35.5939 484.013 34.9761 484.263 34.3434 484.263H34.3419Z" fill="#2F2E41"/>
<path d="M43.3512 490.574C42.9799 490.574 42.6117 490.487 42.2642 490.317L36.0134 487.268C35.3116 486.922 34.7286 486.26 34.3706 485.402C34.0126 484.545 33.9035 483.548 34.0632 482.594C35.6369 473.39 41.0003 442.053 43.9372 425.245C47.42 405.308 98.2305 401.603 100.392 401.455L100.57 401.443L106.283 410.785C108.349 419.421 107.694 426.157 104.337 430.806C94.5436 444.368 65.3012 435.954 61.8144 434.888L46.2708 487.961C46.0443 488.73 45.6439 489.391 45.1226 489.857C44.6012 490.323 43.9834 490.573 43.3507 490.573L43.3512 490.574Z" fill="#2F2E41"/>
<path d="M25.2669 360.736C25.4964 361.136 25.7015 361.558 25.8801 362L60.0604 366.684L64.9815 357.908L76.1327 365.836L66.4688 387.131L24.5495 373.228C23.4919 374.569 22.1454 375.46 20.6891 375.781C19.2329 376.103 17.7359 375.84 16.3972 375.028C15.0585 374.216 13.9416 372.893 13.1951 371.235C12.4485 369.577 12.1077 367.663 12.2178 365.747C12.328 363.831 12.8841 362.004 13.8119 360.509C14.7398 359.014 15.9956 357.921 17.4123 357.377C18.8289 356.833 20.3393 356.863 21.7426 357.463C23.1458 358.063 24.3755 359.205 25.2679 360.736L25.2669 360.736Z" fill="#FEB8B8"/>
<path d="M104.697 414.361C104.202 414.36 103.716 414.206 103.276 413.911C96.4414 409.39 83.1325 401.561 70.7911 399.923C70.3687 399.869 69.9597 399.701 69.5902 399.429C69.2208 399.158 68.8991 398.789 68.6457 398.346C68.3875 397.898 68.2029 397.386 68.1036 396.842C68.0042 396.297 67.9921 395.732 68.0681 395.181C69.1818 387.162 71.7363 366.741 71.4072 350.375C71.3103 345.343 72.5325 340.417 74.8728 336.409C77.2132 332.4 80.5323 329.546 84.2847 328.317C86.5432 327.542 88.837 326.953 91.1526 326.555C93.8149 326.117 96.519 326.495 99.0486 327.661C101.578 328.826 103.863 330.746 105.719 333.266C107.576 335.787 108.953 338.838 109.74 342.175C110.527 345.512 110.702 349.043 110.252 352.484C108.051 369.445 105.832 393.133 107.761 409.669C107.849 410.411 107.778 411.169 107.556 411.861C107.333 412.553 106.968 413.152 106.5 413.59C105.977 414.089 105.345 414.359 104.697 414.361Z" fill="#CCCCCC"/>
<path d="M72.0402 371.222C71.6141 371.222 71.1927 371.107 70.802 370.886L61.8979 365.873C61.1395 365.445 60.5427 364.642 60.2384 363.642C59.9341 362.642 59.9472 361.526 60.2748 360.538L67.1575 339.856C67.5664 338.603 68.161 337.466 68.9074 336.512C69.6538 335.558 70.5374 334.804 71.5077 334.294C72.4781 333.784 73.5162 333.527 74.5627 333.539C75.6093 333.551 76.6438 333.83 77.6073 334.362C78.5707 334.894 79.4442 335.668 80.1778 336.638C80.9115 337.609 81.4909 338.759 81.8831 340.021C82.2753 341.283 82.4725 342.634 82.4634 343.995C82.4544 345.357 82.2393 346.702 81.8305 347.956C81.8156 348.001 81.8005 348.047 81.7851 348.092L74.9024 368.775C74.6601 369.501 74.2603 370.119 73.7519 370.554C73.2434 370.989 72.6486 371.221 72.0402 371.222Z" fill="#CCCCCC"/>
<path d="M92.422 319.519C101.823 319.519 109.443 309.606 109.443 297.377C109.443 285.148 101.823 275.235 92.422 275.235C83.0213 275.235 75.4005 285.148 75.4005 297.377C75.4005 309.606 83.0213 319.519 92.422 319.519Z" fill="#FEB8B8"/>
<path d="M75.0941 286.496C83.1566 292.899 92.246 296.795 101.655 297.881L98.855 293.518C100.894 294.498 103.039 295.052 105.211 295.159C106.298 295.2 107.378 294.909 108.363 294.309C109.348 293.709 110.212 292.817 110.884 291.704C111.433 290.55 111.759 289.239 111.835 287.885C111.91 286.531 111.733 285.173 111.318 283.927C110.464 281.442 109.136 279.282 107.46 277.652C104.489 274.595 100.982 272.541 97.2522 271.674C93.5226 270.807 89.6859 271.153 86.0842 272.683C83.6135 273.643 81.4008 275.49 79.6996 278.01C78.0859 280.6 74.9795 282.907 75.8056 286.063L75.0941 286.496Z" fill="#2F2E41"/>
<path d="M93.9438 267.844C97.3365 263.367 101.442 259.912 105.972 257.723C108.848 256.149 112.001 255.64 115.085 256.251C118.125 257.047 121 259.783 121.848 263.663C122.54 266.835 121.825 270.251 120.749 273.239C119.673 276.227 118.236 278.996 117.366 282.094C116.478 285.255 116.21 288.654 116.589 291.984C116.967 295.313 117.978 298.467 119.531 301.159C121.084 303.851 123.129 305.996 125.481 307.399C127.832 308.802 130.416 309.419 132.998 309.193C130.011 309.714 127.258 311.54 124.338 312.512C121.419 313.483 117.973 313.418 115.803 310.696C113.508 307.818 113.462 303.137 113.573 298.992L114.067 280.506C114.151 277.364 114.223 274.121 113.352 271.186C112.48 268.252 110.41 265.685 107.993 265.712C106.161 265.732 104.54 267.176 103.07 268.599C101.601 270.023 100.046 271.542 98.2211 271.754C96.3964 271.966 94.3129 270.211 94.4492 267.833" fill="#2F2E41"/>
<path d="M63.8046 408.673C62.6768 408.671 61.5634 408.344 60.5445 407.715C59.5256 407.086 58.6266 406.171 57.9123 405.036C57.198 403.9 56.6862 402.573 56.4137 401.15C56.1412 399.726 56.1148 398.241 56.3364 396.803C56.5581 395.364 57.0222 394.008 57.6954 392.831C58.3687 391.654 59.2342 390.686 60.2297 389.996C61.2251 389.307 62.3258 388.913 63.4523 388.843C64.5789 388.774 65.7032 389.03 66.7445 389.594C67.0577 389.766 67.3613 389.966 67.6531 390.193L98.6599 372.086L99.5309 361.147L112.897 360.682L112.808 378.893C112.792 381.003 112.253 383.05 111.272 384.73C110.29 386.41 108.918 387.634 107.36 388.219L71.1009 401.642C71.0309 401.954 70.9485 402.26 70.8538 402.561C70.2721 404.368 69.2932 405.912 68.0399 407C66.7866 408.087 65.3145 408.669 63.8081 408.673L63.8046 408.673Z" fill="#FEB8B8"/>
<path d="M111.765 369.605C111.385 369.856 110.969 370.002 110.544 370.035L100.86 370.809C100.034 370.874 99.223 370.51 98.6036 369.798C97.9842 369.086 97.6073 368.083 97.5556 367.009L96.4928 344.514C96.3655 341.771 97.0803 339.075 98.4802 337.017C99.8801 334.96 101.851 333.709 103.959 333.541C106.067 333.372 108.141 334.299 109.724 336.118C111.307 337.936 112.271 340.498 112.403 343.241L113.466 365.736C113.503 366.526 113.362 367.313 113.06 368.001C112.758 368.688 112.308 369.246 111.766 369.605H111.765Z" fill="#CCCCCC"/>
<path d="M92.2643 404.637H34.4214C33.9363 404.637 33.5429 405.148 33.5429 405.78V409.804C33.5429 410.435 33.9363 410.947 34.4214 410.947H92.2643C92.7495 410.947 93.1428 410.435 93.1428 409.804V405.78C93.1428 405.148 92.7495 404.637 92.2643 404.637Z" fill="#3F3D56"/>
<path d="M11.3172 405.088V360.914C11.3186 359.36 11.7937 357.871 12.6382 356.772C13.4826 355.674 14.6276 355.056 15.8218 355.054H77.5009C78.6952 355.056 79.8402 355.674 80.6847 356.772C81.5292 357.871 82.0042 359.36 82.0055 360.914V405.088C82.0042 406.642 81.5292 408.131 80.6847 409.23C79.8402 410.328 78.6952 410.946 77.5009 410.948H15.8218C14.6276 410.946 13.4826 410.328 12.6382 409.229C11.7937 408.131 11.3186 406.642 11.3172 405.088Z" fill="#3F3D56"/>
<path d="M47.4032 388.412C49.6998 388.412 51.5615 385.991 51.5615 383.003C51.5615 380.016 49.6998 377.594 47.4032 377.594C45.1067 377.594 43.2449 380.016 43.2449 383.003C43.2449 385.991 45.1067 388.412 47.4032 388.412Z" fill="white"/>
</g>
<g clip-path="url(#clip1_13_124)">
<path d="M705.703 666.049C705.057 666.705 704.384 667.352 703.704 668H626.099C625.461 667.369 624.832 666.721 624.202 666.049C624.176 666.024 624.151 665.992 624.125 665.967C615.694 656.967 610.386 643.884 607.076 630.088C606.864 629.252 606.677 628.408 606.49 627.555C605.622 623.678 604.916 619.76 604.337 615.874C604.235 615.202 604.133 614.53 604.048 613.858C603.265 608.275 602.738 602.783 602.397 597.627C602.355 596.963 602.312 596.316 602.27 595.668C601.647 585.403 601.641 575.112 602.253 564.847C602.253 564.847 602.355 564.847 602.551 564.855C603.121 564.879 604.49 564.937 606.507 565.052C612.062 565.379 622.543 566.199 634.87 568.134C635.542 568.24 636.223 568.355 636.904 568.47C647.33 570.13 657.615 572.53 667.675 575.651C668.305 575.855 668.926 576.06 669.555 576.265L669.564 576.306L677.28 613.612L680.479 580.405C683.023 581.512 685.498 582.692 687.872 583.954C688.535 584.307 689.182 584.659 689.82 585.02C695.246 587.983 700.172 591.725 704.427 596.119C729.737 623.145 724.318 647.302 705.703 666.049Z" fill="#F2F2F2"/>
<path d="M673.272 618.745L674.618 620.181C690.169 636.951 699.45 652.517 702.309 666.675C702.354 666.88 702.386 667.085 702.431 667.291L701.436 667.473L700.477 667.636C697.559 652.2 686.694 636.244 673.134 621.613C672.702 621.138 672.263 620.655 671.81 620.185C666.012 614.04 659.78 608.146 653.478 602.634C652.994 602.203 652.496 601.772 651.998 601.34C643.641 594.107 635.233 587.562 627.734 582.046C627.206 581.654 626.67 581.268 626.142 580.889C613.41 571.602 603.531 565.446 601.33 564.097C601.064 563.928 600.914 563.839 600.88 563.817L601.401 563.015L601.402 563.002L601.93 562.194C601.964 562.216 602.47 562.512 603.382 563.086C606.809 565.214 616.021 571.073 627.48 579.402C627.995 579.78 628.531 580.166 629.059 580.558C635.149 585.029 641.809 590.151 648.536 595.758C650.228 597.164 651.878 598.568 653.485 599.969C653.991 600.394 654.489 600.825 654.972 601.256C661.786 607.214 667.886 613.043 673.272 618.745Z" fill="white"/>
<path d="M635.602 566.543C635.372 567.076 635.126 567.609 634.87 568.134C632.927 572.186 630.442 575.975 627.477 579.405C627.044 579.897 626.601 580.397 626.142 580.889C624.9 582.208 623.578 583.484 622.177 584.717C616.445 589.716 609.652 593.453 602.27 595.668C602.031 595.742 601.802 595.816 601.564 595.881C601.606 596.529 601.649 597.168 601.691 597.832C601.93 597.767 602.159 597.701 602.397 597.627C610.23 595.352 617.44 591.426 623.504 586.135C624.987 584.844 626.399 583.478 627.733 582.044C628.192 581.561 628.635 581.061 629.06 580.561C632.23 576.891 634.868 572.823 636.904 568.47C637.142 567.945 637.38 567.421 637.61 566.888C636.929 566.773 636.257 566.658 635.602 566.543Z" fill="white"/>
<path d="M668.024 574.2C667.922 574.683 667.802 575.167 667.675 575.651C665.368 584.865 660.457 593.284 653.485 599.972C653 600.439 652.506 600.898 651.996 601.341C651.851 601.48 651.689 601.627 651.537 601.759C645.194 607.275 637.575 611.252 629.315 613.356C621.054 615.461 612.391 615.633 604.048 613.858C603.852 613.825 603.648 613.776 603.453 613.735C603.554 614.407 603.648 615.087 603.759 615.759C603.954 615.8 604.142 615.841 604.337 615.874C612.892 617.58 621.744 617.319 630.175 615.113C638.606 612.907 646.379 608.817 652.863 603.177C653.068 602.996 653.28 602.824 653.476 602.636C653.987 602.177 654.48 601.718 654.974 601.259C662.108 594.379 667.154 585.75 669.564 576.306C669.691 575.814 669.81 575.323 669.921 574.831C669.291 574.618 668.662 574.405 668.024 574.2Z" fill="white"/>
<path d="M687.872 582.569C687.88 583.028 687.88 583.495 687.872 583.954C687.73 596.909 682.516 609.334 673.273 618.743C672.796 619.235 672.303 619.71 671.81 620.186C671.274 620.686 670.738 621.186 670.185 621.661C661.626 629.093 650.816 633.678 639.347 634.739C627.878 635.801 616.359 633.282 606.489 627.555C606.32 627.47 606.156 627.377 605.996 627.276C606.2 628.145 606.404 628.998 606.626 629.85C606.779 629.932 606.923 630.014 607.076 630.088C617.232 635.544 628.905 637.803 640.46 636.548C652.014 635.292 662.872 630.586 671.512 623.088C672.065 622.604 672.618 622.12 673.137 621.612C673.647 621.145 674.132 620.669 674.617 620.178C683.99 610.653 689.401 598.14 689.82 585.02C689.837 584.577 689.845 584.135 689.845 583.692C689.199 583.307 688.535 582.938 687.872 582.569Z" fill="white"/>
<path d="M515.881 225.727H366.332C365.088 225.726 363.894 225.249 363.014 224.401C362.134 223.553 361.639 222.404 361.638 221.205V111.793C361.639 110.593 362.134 109.444 363.014 108.596C363.894 107.748 365.088 107.271 366.332 107.269H549.896C551.14 107.271 552.333 107.748 553.213 108.596C554.093 109.444 554.588 110.593 554.59 111.793V188.43C554.578 198.319 550.496 207.799 543.239 214.791C535.982 221.783 526.143 225.716 515.881 225.727Z" fill="white"/>
<path d="M515.881 226.137H366.332C364.975 226.136 363.674 225.616 362.714 224.691C361.754 223.766 361.214 222.512 361.213 221.205V111.793C361.214 110.485 361.754 109.231 362.714 108.306C363.673 107.381 364.975 106.861 366.332 106.859H549.896C551.253 106.861 552.554 107.381 553.514 108.306C554.474 109.231 555.014 110.485 555.015 111.793V188.43C555.003 198.427 550.876 208.012 543.54 215.081C536.203 222.15 526.256 226.126 515.881 226.137ZM366.332 108.499C365.426 108.5 364.557 108.847 363.916 109.465C363.276 110.082 362.915 110.919 362.914 111.793V221.205C362.915 222.078 363.276 222.915 363.916 223.532C364.557 224.15 365.426 224.497 366.332 224.498H515.881C525.805 224.487 535.32 220.684 542.337 213.922C549.355 207.16 553.302 197.993 553.313 188.43V111.793C553.312 110.919 552.952 110.082 552.311 109.465C551.671 108.847 550.802 108.5 549.896 108.499H366.332Z" fill="#CCCCCC"/>
<path d="M513.61 144.22H402.618C401.599 144.22 400.622 143.83 399.901 143.136C399.181 142.441 398.776 141.5 398.776 140.518C398.776 139.536 399.181 138.594 399.901 137.9C400.622 137.206 401.599 136.816 402.618 136.816H513.61C514.628 136.817 515.603 137.208 516.323 137.902C517.042 138.596 517.446 139.537 517.446 140.518C517.446 141.499 517.042 142.44 516.323 143.134C515.603 143.828 514.628 144.218 513.61 144.22Z" fill="#CCCCCC"/>
<path d="M513.61 169.722H402.618C401.599 169.722 400.622 169.332 399.901 168.638C399.181 167.943 398.776 167.002 398.776 166.02C398.776 165.038 399.181 164.097 399.901 163.402C400.622 162.708 401.599 162.318 402.618 162.318H513.61C514.629 162.318 515.606 162.708 516.326 163.402C517.047 164.097 517.452 165.038 517.452 166.02C517.452 167.002 517.047 167.943 516.326 168.638C515.606 169.332 514.629 169.722 513.61 169.722Z" fill="#CCCCCC"/>
<path d="M513.61 195.953H402.618C401.599 195.953 400.622 195.563 399.901 194.869C399.181 194.174 398.776 193.233 398.776 192.251C398.776 191.269 399.181 190.328 399.901 189.633C400.622 188.939 401.599 188.549 402.618 188.549H513.61C514.629 188.549 515.606 188.939 516.326 189.633C517.047 190.328 517.452 191.269 517.452 192.251C517.452 193.233 517.047 194.174 516.326 194.869C515.606 195.563 514.629 195.953 513.61 195.953Z" fill="#CCCCCC"/>
<path d="M548.517 134.213C561.189 134.213 571.461 124.316 571.461 112.107C571.461 99.8975 561.189 90 548.517 90C535.846 90 525.574 99.8975 525.574 112.107C525.574 124.316 535.846 134.213 548.517 134.213Z" fill="#FF8400"/>
<path d="M545.387 123.612C544.991 123.612 544.6 123.523 544.246 123.352C543.892 123.182 543.584 122.934 543.346 122.628L537.087 114.587C536.886 114.328 536.739 114.034 536.656 113.722C536.573 113.409 536.555 113.083 536.602 112.764C536.649 112.444 536.762 112.136 536.932 111.858C537.103 111.581 537.329 111.338 537.597 111.144C537.865 110.95 538.17 110.809 538.495 110.729C538.82 110.649 539.158 110.631 539.489 110.677C539.821 110.723 540.14 110.831 540.429 110.996C540.717 111.16 540.969 111.378 541.17 111.636L545.265 116.897L555.783 101.696C556.158 101.153 556.742 100.776 557.406 100.648C558.069 100.521 558.759 100.652 559.322 101.014C559.885 101.375 560.276 101.938 560.409 102.578C560.542 103.217 560.405 103.881 560.03 104.424L547.511 122.517C547.285 122.844 546.98 123.114 546.623 123.305C546.266 123.495 545.866 123.6 545.458 123.611C545.435 123.612 545.411 123.612 545.387 123.612Z" fill="white"/>
<path d="M460.683 320.757H311.134C300.872 320.746 291.033 316.812 283.776 309.82C276.519 302.828 272.437 293.348 272.425 283.46V206.821C272.427 205.622 272.922 204.473 273.802 203.625C274.682 202.777 275.875 202.3 277.12 202.298H460.683C461.927 202.3 463.121 202.777 464.001 203.625C464.881 204.473 465.376 205.622 465.377 206.821V316.233C465.376 317.433 464.881 318.582 464.001 319.43C463.121 320.278 461.927 320.755 460.683 320.757Z" fill="white"/>
<path d="M460.683 321.167H311.134C300.759 321.155 290.812 317.179 283.475 310.11C276.139 303.041 272.012 293.457 272 283.46V206.821C272.002 205.514 272.541 204.26 273.501 203.335C274.461 202.41 275.762 201.89 277.12 201.888H460.683C462.04 201.89 463.342 202.41 464.301 203.335C465.261 204.26 465.801 205.514 465.803 206.821V316.233C465.801 317.541 465.261 318.795 464.301 319.72C463.342 320.645 462.04 321.165 460.683 321.167ZM277.12 203.528C276.214 203.529 275.345 203.876 274.704 204.494C274.063 205.111 273.703 205.948 273.701 206.821V283.46C273.713 293.022 277.66 302.19 284.678 308.951C291.695 315.713 301.21 319.516 311.134 319.527H460.683C461.589 319.526 462.458 319.179 463.099 318.561C463.74 317.944 464.1 317.107 464.101 316.233V206.821C464.1 205.948 463.74 205.111 463.099 204.494C462.458 203.876 461.589 203.529 460.683 203.528H277.12Z" fill="#CCCCCC"/>
<path d="M424.397 239.249H313.405C312.386 239.249 311.409 238.859 310.689 238.164C309.968 237.47 309.563 236.529 309.563 235.547C309.563 234.565 309.968 233.623 310.689 232.929C311.409 232.235 312.386 231.845 313.405 231.845H424.397C425.416 231.845 426.393 232.235 427.114 232.929C427.834 233.623 428.239 234.565 428.239 235.547C428.239 236.529 427.834 237.47 427.114 238.164C426.393 238.859 425.416 239.249 424.397 239.249Z" fill="#CCCCCC"/>
<path d="M424.397 264.751H313.405C312.386 264.751 311.409 264.361 310.689 263.667C309.968 262.972 309.563 262.031 309.563 261.049C309.563 260.067 309.968 259.125 310.689 258.431C311.409 257.737 312.386 257.347 313.405 257.347H424.397C425.416 257.347 426.393 257.737 427.114 258.431C427.835 259.125 428.239 260.067 428.239 261.049C428.239 262.031 427.835 262.972 427.114 263.667C426.393 264.361 425.416 264.751 424.397 264.751Z" fill="#CCCCCC"/>
<path d="M424.397 290.982H313.405C312.386 290.982 311.409 290.592 310.689 289.898C309.968 289.203 309.563 288.262 309.563 287.28C309.563 286.298 309.968 285.356 310.689 284.662C311.409 283.968 312.386 283.578 313.405 283.578H424.397C425.416 283.578 426.393 283.968 427.114 284.662C427.835 285.356 428.239 286.298 428.239 287.28C428.239 288.262 427.835 289.203 427.114 289.898C426.393 290.592 425.416 290.982 424.397 290.982Z" fill="#CCCCCC"/>
<path d="M460.891 230.12C473.562 230.12 483.834 220.223 483.834 208.014C483.834 195.804 473.562 185.907 460.891 185.907C448.219 185.907 437.947 195.804 437.947 208.014C437.947 220.223 448.219 230.12 460.891 230.12Z" fill="#FF8400"/>
<path d="M457.761 219.519C457.365 219.519 456.974 219.43 456.619 219.259C456.265 219.089 455.957 218.841 455.719 218.535L449.46 210.494C449.259 210.235 449.113 209.941 449.029 209.629C448.946 209.316 448.928 208.99 448.975 208.671C449.023 208.351 449.135 208.043 449.306 207.765C449.477 207.488 449.702 207.245 449.971 207.051C450.239 206.857 450.544 206.716 450.868 206.636C451.193 206.556 451.531 206.538 451.863 206.584C452.194 206.63 452.514 206.738 452.802 206.903C453.09 207.067 453.342 207.285 453.543 207.543L457.638 212.804L468.156 197.603C468.532 197.06 469.115 196.683 469.779 196.555C470.443 196.428 471.132 196.559 471.695 196.921C472.258 197.283 472.649 197.845 472.782 198.485C472.915 199.124 472.779 199.788 472.403 200.331L459.885 218.424C459.658 218.751 459.354 219.021 458.996 219.212C458.639 219.402 458.24 219.507 457.832 219.518C457.808 219.519 457.784 219.519 457.761 219.519Z" fill="white"/>
<path d="M647.017 422.74H437.764C427.502 422.729 417.663 418.796 410.406 411.804C403.149 404.812 399.067 395.332 399.055 385.443V272.721C399.057 271.175 399.695 269.693 400.83 268.6C401.964 267.507 403.502 266.892 405.107 266.89H647.017C648.621 266.892 650.159 267.507 651.293 268.6C652.428 269.693 653.066 271.175 653.067 272.721V416.909C653.066 418.455 652.428 419.937 651.293 421.03C650.159 422.124 648.621 422.738 647.017 422.74Z" fill="white"/>
<path d="M647.017 423.15H437.764C427.389 423.139 417.442 419.163 410.105 412.094C402.769 405.025 398.642 395.44 398.63 385.443V272.721C398.632 271.066 399.315 269.48 400.529 268.31C401.743 267.14 403.39 266.482 405.107 266.48H647.017C648.734 266.482 650.38 267.14 651.594 268.31C652.808 269.48 653.491 271.066 653.493 272.721V416.91C653.491 418.564 652.808 420.15 651.594 421.32C650.38 422.49 648.734 423.148 647.017 423.15ZM405.107 268.12C403.841 268.121 402.627 268.606 401.732 269.469C400.837 270.332 400.333 271.501 400.332 272.721V385.443C400.343 395.006 404.29 404.173 411.308 410.935C418.325 417.697 427.84 421.5 437.764 421.511H647.017C648.283 421.509 649.496 421.024 650.391 420.161C651.286 419.299 651.79 418.129 651.791 416.91V272.721C651.79 271.501 651.286 270.332 650.391 269.469C649.496 268.606 648.283 268.121 647.017 268.12H405.107Z" fill="#CCCCCC"/>
<path d="M599.197 315.455H452.926C452.26 315.456 451.601 315.33 450.986 315.086C450.371 314.841 449.812 314.482 449.341 314.028C448.871 313.575 448.497 313.037 448.242 312.445C447.987 311.853 447.856 311.218 447.856 310.577C447.856 309.935 447.987 309.3 448.242 308.708C448.497 308.116 448.871 307.578 449.341 307.125C449.812 306.672 450.371 306.312 450.986 306.067C451.601 305.823 452.26 305.697 452.926 305.698H599.197C599.863 305.697 600.522 305.823 601.137 306.067C601.752 306.312 602.311 306.672 602.782 307.125C603.252 307.578 603.626 308.116 603.881 308.708C604.136 309.3 604.267 309.935 604.267 310.577C604.267 311.218 604.136 311.853 603.881 312.445C603.626 313.037 603.252 313.575 602.782 314.028C602.311 314.482 601.752 314.841 601.137 315.086C600.522 315.33 599.863 315.456 599.197 315.455Z" fill="#CCCCCC"/>
<path d="M599.197 349.063H452.926C452.26 349.064 451.601 348.938 450.986 348.694C450.371 348.449 449.812 348.09 449.341 347.636C448.871 347.183 448.497 346.645 448.242 346.053C447.987 345.461 447.856 344.826 447.856 344.185C447.856 343.543 447.987 342.908 448.242 342.316C448.497 341.724 448.871 341.186 449.341 340.733C449.812 340.279 450.371 339.92 450.986 339.675C451.601 339.431 452.26 339.305 452.926 339.306H599.197C600.54 339.306 601.828 339.82 602.777 340.735C603.727 341.65 604.26 342.891 604.26 344.185C604.26 345.478 603.727 346.719 602.777 347.634C601.828 348.549 600.54 349.063 599.197 349.063Z" fill="#CCCCCC"/>
<path d="M599.197 383.632H452.926C451.583 383.632 450.295 383.118 449.346 382.203C448.396 381.288 447.863 380.047 447.863 378.753C447.863 377.459 448.396 376.218 449.346 375.304C450.295 374.389 451.583 373.875 452.926 373.875H599.197C599.863 373.874 600.522 373.999 601.137 374.244C601.752 374.489 602.311 374.848 602.782 375.301C603.252 375.754 603.626 376.292 603.881 376.885C604.136 377.477 604.267 378.112 604.267 378.753C604.267 379.394 604.136 380.029 603.881 380.622C603.626 381.214 603.252 381.752 602.782 382.205C602.311 382.658 601.752 383.017 601.137 383.262C600.522 383.507 599.863 383.633 599.197 383.632Z" fill="#CCCCCC"/>
<path d="M647.777 303.699C663.817 303.699 676.82 291.17 676.82 275.715C676.82 260.259 663.817 247.73 647.777 247.73C631.736 247.73 618.733 260.259 618.733 275.715C618.733 291.17 631.736 303.699 647.777 303.699Z" fill="#FF8400"/>
<path d="M643.814 290.279C643.313 290.279 642.818 290.167 642.37 289.951C641.921 289.734 641.531 289.42 641.23 289.034L633.307 278.854C633.052 278.527 632.867 278.155 632.762 277.759C632.656 277.363 632.633 276.951 632.693 276.546C632.753 276.142 632.895 275.752 633.111 275.401C633.328 275.049 633.614 274.742 633.953 274.496C634.292 274.251 634.679 274.073 635.09 273.971C635.501 273.87 635.928 273.847 636.348 273.905C636.768 273.963 637.172 274.1 637.537 274.308C637.902 274.517 638.221 274.792 638.476 275.119L643.66 281.778L656.974 262.536C657.449 261.85 658.188 261.374 659.028 261.213C659.867 261.052 660.739 261.218 661.452 261.676C662.164 262.133 662.659 262.845 662.827 263.653C662.995 264.462 662.824 265.302 662.35 265.989L646.503 288.893C646.216 289.307 645.831 289.649 645.379 289.89C644.926 290.131 644.421 290.264 643.904 290.278C643.874 290.279 643.844 290.279 643.814 290.279Z" fill="white"/>
<path d="M723.018 645.659L711.202 649.467L690.336 607.364L707.776 601.744L723.018 645.659Z" fill="#FFB6B6"/>
<path d="M729.862 655.724L691.761 665.542L691.6 665.078C690.276 661.261 690.573 659.635 692.437 656.033C693.349 654.26 694.617 652.678 696.167 651.38C697.718 650.081 699.52 649.092 701.47 648.469L701.471 648.469L706.664 641.139L721.416 642.042L724.742 640.97L729.862 655.724Z" fill="#2F2E41"/>
<path d="M752.212 656.364H739.753L733.825 610.058L752.214 610.059L752.212 656.364Z" fill="#FFB6B6"/>
<path d="M755.39 665.542L715.214 665.541V665.051C715.215 661.027 716.841 659.702 719.795 656.856C721.244 655.453 722.967 654.34 724.865 653.583C726.763 652.826 728.798 652.438 730.852 652.444H730.853L738.191 647.079L751.883 652.444L755.39 652.445L755.39 665.542Z" fill="#2F2E41"/>
<path d="M657.387 285.352C657.643 286.61 658.183 287.798 658.968 288.833C659.752 289.868 660.763 290.725 661.929 291.343C663.094 291.961 664.386 292.325 665.713 292.41C667.041 292.495 668.371 292.298 669.611 291.834L683.996 306.303L695.253 300.026L674.642 279.867C673.695 277.911 672.036 276.358 669.98 275.503C667.923 274.647 665.613 274.548 663.486 275.224C661.359 275.9 659.563 277.305 658.439 279.171C657.315 281.038 656.94 283.237 657.387 285.352Z" fill="#FFB6B6"/>
<path d="M750.477 358.107L756.961 351.643L719.462 318.179L681.72 285.709L671.267 299.94L710.817 335.511L750.477 358.107Z" fill="#E4E4E4"/>
<path d="M727.436 577.711C727.436 569.587 727.603 563.792 727.737 559.136C728.129 545.51 728.234 541.847 722.822 518.381L721.432 512.354L713.236 536.047C710.618 543.605 709.28 551.52 709.274 559.488L721.912 632.551H696.081L677.163 553.563L677.154 529.401C675.487 527.739 674.556 525.518 674.556 523.207C674.556 520.896 675.487 518.675 677.154 517.013L683.439 480.816L689.801 432.031H759.483C759.483 432.031 771.781 456.592 759.56 480.954L759.558 577.741L753.244 644.663H733.751L727.436 577.711Z" fill="#2F2E41"/>
<path d="M755.223 437.936L690.045 432.703L689.706 432.676L694.908 342.463C695.214 336.791 697.279 331.338 700.837 326.81C704.395 322.281 709.282 318.886 714.865 317.063V310.75C714.867 309.188 715.512 307.69 716.659 306.585C717.806 305.48 719.36 304.858 720.982 304.857H730.505C731.642 304.853 732.757 305.156 733.724 305.732C734.691 306.308 735.471 307.133 735.976 308.115L740.633 317.088L758.242 330.662C766.939 337.366 759.94 404.581 759.563 408.128L763.822 428.646C764.056 429.775 764.028 430.939 763.739 432.056C763.45 433.173 762.909 434.215 762.152 435.106C761.396 435.997 760.444 436.715 759.366 437.21C758.287 437.704 757.108 437.962 755.913 437.965C755.684 437.964 755.454 437.955 755.223 437.936Z" fill="#E4E4E4"/>
<path d="M686.2 461.756C687.23 460.945 688.064 459.927 688.641 458.772C689.219 457.617 689.527 456.355 689.543 455.073C689.56 453.791 689.284 452.522 688.736 451.354C688.188 450.185 687.381 449.147 686.372 448.312L692.839 429.27L681.787 422.661L673.047 449.676C671.703 451.403 671.064 453.545 671.25 455.695C671.435 457.846 672.433 459.856 674.055 461.345C675.676 462.834 677.808 463.698 680.046 463.774C682.285 463.85 684.474 463.132 686.2 461.756Z" fill="#FFB6B6"/>
<path d="M708.93 332.299L699.957 329.417L686.996 385.131L675.06 440.539L693.013 443.085L706.935 384.171L708.93 332.299Z" fill="#E4E4E4"/>
<path d="M718.728 299.09C730.551 299.09 740.135 289.856 740.135 278.464C740.135 267.073 730.551 257.839 718.728 257.839C706.906 257.839 697.322 267.073 697.322 278.464C697.322 289.856 706.906 299.09 718.728 299.09Z" fill="#FFB6B6"/>
<path d="M689.926 268.363C690.123 266.409 690.705 264.508 691.639 262.763C692.64 264.859 695.761 265.223 697.898 264.18C700.034 263.136 701.466 261.154 702.992 259.376C707.021 254.684 712.562 250.877 718.841 250.184C725.12 249.491 732.041 252.545 734.414 258.189C735.478 256.765 737.75 256.607 739.357 257.434C740.909 258.377 742.12 259.76 742.824 261.393C744.405 264.517 745.298 267.922 745.447 271.394C745.597 274.867 745.001 278.331 743.695 281.571C741.051 288.018 734.521 296.704 727.785 299.137C723.695 300.614 719.564 298.724 715.214 299.137C715.442 294.563 716.363 288.92 716.59 284.346C716.715 281.841 716.733 279.038 714.958 277.205C714.413 276.707 713.761 276.33 713.049 276.101C712.336 275.872 711.58 275.797 710.834 275.881C710.088 275.965 709.371 276.206 708.732 276.587C708.093 276.967 707.549 277.479 707.138 278.084C706.918 276.662 706.42 275.293 705.669 274.051C705.284 273.434 704.728 272.934 704.064 272.606C703.4 272.278 702.653 272.136 701.909 272.195C700.093 272.481 698.971 274.278 697.305 275.03C696.358 275.396 695.318 275.474 694.324 275.254C693.33 275.034 692.43 274.528 691.743 273.801C691.076 273.059 690.571 272.195 690.259 271.261C689.946 270.327 689.833 269.341 689.926 268.363Z" fill="#2F2E41"/>
<path opacity="0.1" d="M721.499 383.921L696.359 432.368H715.215L721.499 383.921Z" fill="black"/>
<path d="M890 667.025C890 667.153 889.974 667.28 889.924 667.398C889.873 667.517 889.799 667.625 889.704 667.715C889.61 667.806 889.499 667.878 889.376 667.927C889.253 667.975 889.121 668 888.988 668H408.921C408.653 668 408.395 667.897 408.205 667.714C408.015 667.531 407.909 667.283 407.909 667.025C407.909 666.766 408.015 666.518 408.205 666.335C408.395 666.152 408.653 666.049 408.921 666.049H888.988C889.121 666.049 889.253 666.074 889.376 666.123C889.499 666.171 889.61 666.243 889.704 666.334C889.799 666.425 889.873 666.532 889.924 666.651C889.975 666.769 890 666.896 890 667.025Z" fill="#CACACA"/>
</g>
<defs>
<clipPath id="clip0_13_124">
<rect width="460" height="407" fill="white" transform="translate(0 256)"/>
</clipPath>
<clipPath id="clip1_13_124">
<rect width="618" height="578" fill="white" transform="translate(272 90)"/>
</clipPath>
</defs>
</svg>
